<svg id="Layer_1" enable-background="new 0 0 512 512" height="512" viewBox="0 0 512 512" width="512" xmlns="http://www.w3.org/2000/svg"><g><g><path d="m196.917 166.199-22.116-7.791-22.296 7.791v107.935c0 12.313 9.982 22.296 22.296 22.296 12.313 0 22.296-9.982 22.296-22.296v-107.952c-.062.002-.116.017-.18.017z" fill="#ffb69e"/></g><g id="XMLID_7150_"><path d="m298.593 512c-14.776 0-26.754-11.979-26.754-26.755v-213.852c0-14.776 11.978-26.755 26.754-26.755s26.754 11.979 26.754 26.755v213.853c0 14.776-11.978 26.754-26.754 26.754z" fill="#414b82"/></g><g><g id="XMLID_7151_"><g><path d="m234.006 512c-14.776 0-26.754-11.979-26.754-26.755v-213.852c0-14.776 11.978-26.755 26.754-26.755s26.754 11.979 26.754 26.755v213.853c0 14.776-11.978 26.754-26.754 26.754z" fill="#5f6e9b"/></g></g><path d="m362.469 79.436c-4.068-12.544-15.663-21.029-28.852-21.114-143.636-1.101-77.39-.361-127.526-.594-29.4 0-53.439 23.55-53.585 52.497-.001.038-.001.075-.001.113v55.826l44.592.018v-40.785l10.154 3.084v142.911h118.096v-144.434c23.406-11.868 23.525-11.557 26.158-13.493 10.627-7.809 15.033-21.485 10.964-34.029z" fill="#64afff"/></g><circle cx="271.838" cy="46.208" fill="#ffa68a" r="46.208"/><g fill="#c8e6eb"><path d="m156.08 53.944-.308.086c-3.241.907-6.604-.985-7.511-4.226s.985-6.604 4.226-7.511c1.178-.329 10.006-1.492 21.381.132 6.405 1.119 13.739 3.416 18.99 7.241 2.35 1.711.275 5.375-2.395 4.257-4.408-.937-12.018-6.239-34.383.021z"/><path d="m179.956 24.019-.311-.076c-3.269-.802-5.268-4.102-4.466-7.371s4.102-5.268 7.371-4.466c1.493.366 7.918 3.507 10.176 4.893 11.842 7.043 18.551 15.187 21.367 21.36.563 1.236.018 2.694-1.218 3.257-5.017 2.286-2.039-10.018-32.919-17.597z"/></g><g id="XMLID_7140_"><path d="m298.593 90.497-23.729 11.921-69.112-20.995c-11.782-3.579-24.234 3.07-27.814 14.853-3.579 11.782 3.071 24.234 14.852 27.813l77.638 23.585c5.486 1.667 11.388 1.153 16.49-1.41l28.645-14.39z" fill="#ffa68a"/></g></g></svg>