<svg id="Capa_1" enable-background="new 0 0 512 512" height="512" viewBox="0 0 512 512" width="512" xmlns="http://www.w3.org/2000/svg"><g><path d="m512 256c0 19.59-2.2 38.67-6.37 57-8.38 36.85-49.212 46.178-71.592 75.078l-363.035 5.862c-22.77-29.12-56.163-43.68-64.633-80.94-4.17-18.33-6.37-37.41-6.37-57 0-141.38 114.62-256 256-256s256 114.62 256 256z" fill="#90d8f9"/><path d="m505.63 313c-8.38 36.85-24.71 70.68-47.09 99.58l-404.32.98c-22.77-29.12-39.38-63.3-47.85-100.56z" fill="#78c2a4"/><path d="m457.78 195.15v218.41c-10.985 14.046-23.406 26.916-37.04 38.39-25.434 8.568-53.135 28.312-84.33 38.624-25.29 8.37-52.32 13.802-80.41 13.802-18.78 0-37.08-2.02-54.71-5.86-8.74-1.9-17.31-4.25-25.7-7.03-27.734-9.168-53.371-15.328-75.999-32.816-16.936-13.09-32.187-28.253-45.371-45.11v-218.41l22.4-17.03 179.38-136.35z" fill="#ddeafb"/><path d="m457.78 195.15v59.05l-201.78-153.38-201.78 153.38v-59.05l201.78-153.38z" fill="#cbe2ff"/><path d="m95.13 178.12v277.02c-15.16-12.26-28.89-26.21-40.91-41.58v-218.41l22.4-17.03z" fill="#cbe2ff"/><path d="m503.99 198.87-30.26 39.8-217.73-165.5-217.73 165.5-18.4-24.2-11.86-15.6 247.99-188.5 16.19 12.31z" fill="#dd5790"/><path d="m272.19 22.68-252.32 191.79-11.86-15.6 247.99-188.5z" fill="#da387d"/><g><path d="m230.76 425.66v74.5c-6.38-.63-12.69 1.09-18.92 0-6.76-1.17-13.43 5.43-20 3.73-34-8.77-65.26-24.36-92.25-45.22v-33.01c0-20.31 16.47-36.78 36.78-36.78h57.62c20.3 0 36.77 16.47 36.77 36.78z" fill="#b1e4f9"/><path d="m157.32 388.88c-20.31 0-36.77 16.47-36.77 36.78v47.6c-7.24-4.52-14.23-9.39-20.96-14.59v-33.01c0-20.31 16.47-36.78 36.78-36.78z" fill="#90d8f9"/><path d="m187.235 360.896v27.069c0 9.91-6.534 18.287-15.535 21.069-2.06.639-4.256.985-6.527.985-12.181 0-22.054-9.873-22.054-22.054v-27.069z" fill="#ffcbbe"/><path d="m187.235 386.25v1.714c0 9.91-6.534 18.287-15.535 21.069-8.121-2.496-14.226-9.557-15.354-18.197 1.474.09 2.955.135 4.444.135 4.173 0 8.264-.331 12.249-.985 4.909-.788 9.654-2.051 14.196-3.736z" fill="#ffddce"/><g><path d="m104.272 316.305c0 10.112-7.387 18.496-17.059 20.052-1.057.171-2.144.261-3.254.261-11.221 0-20.313-9.092-20.313-20.313s9.092-20.313 20.313-20.313c1.109 0 2.197.089 3.254.261 9.672 1.556 17.059 9.941 17.059 20.052z" fill="#ffddce"/><path d="m104.272 316.305c0 10.112-7.387 18.496-17.059 20.052-1.757-6.389-2.696-13.113-2.696-20.052s.938-13.664 2.696-20.052c9.672 1.556 17.059 9.941 17.059 20.052z" fill="#ffcbbe"/><circle cx="83.959" cy="316.305" fill="#ffcbbe" r="7.26"/><path d="m226.082 316.305c0 10.112 7.387 18.496 17.059 20.052 1.057.171 2.144.261 3.254.261 11.221 0 20.313-9.092 20.313-20.313s-9.092-20.313-20.313-20.313c-1.109 0-2.197.089-3.254.261-9.672 1.556-17.059 9.941-17.059 20.052z" fill="#ffddce"/><g fill="#ffcbbe"><path d="m226.082 316.305c0 10.112 7.387 18.496 17.059 20.052 1.757-6.389 2.695-13.113 2.695-20.052s-.938-13.664-2.695-20.052c-9.672 1.556-17.059 9.941-17.059 20.052z"/><circle cx="246.395" cy="316.305" r="7.26"/></g></g><path d="m241.497 305.628c0 37.98-27.746 69.485-64.071 75.335-3.985.654-8.076.985-12.249.985-42.153 0-76.32-34.167-76.32-76.32v-77.7l152.641-13.838v91.538z" fill="#ffddce"/><path d="m178.62 380.763c-.395.069-.794.138-1.194.202-3.986.651-8.076.982-12.25.982-42.151 0-76.32-34.164-76.32-76.32v-77.701h26.912v77.701c0 37.564 27.124 68.777 62.852 75.136z" fill="#ffcbbe"/><path d="m173.835 322.985h-17.315c-2.063 0-3.735-1.672-3.735-3.735 0-2.063 1.672-3.735 3.735-3.735h17.315c2.063 0 3.735 1.672 3.735 3.735-.001 2.063-1.673 3.735-3.735 3.735z" fill="#ffcbbe"/><path d="m185.976 343.293c-13.592 3.892-28.006 3.892-41.598 0-2.022-.579-3.129-2.759-2.448-4.75.008-.024.016-.047.024-.071.639-1.866 2.625-2.89 4.521-2.348 12.222 3.491 25.18 3.491 37.402 0 1.896-.542 3.883.483 4.521 2.348.008.024.016.047.024.071.683 1.99-.424 4.171-2.446 4.75z" fill="#eaac9d"/><g><path d="m177.681 302.002c0 8.468 6.865 15.333 15.333 15.333s15.333-6.865 15.333-15.333z" fill="#ffcbbe"/><circle cx="193.014" cy="302.002" fill="#353a3d" r="10.995"/><circle cx="197.596" cy="300.062" fill="#fff" r="4.712"/><path d="m122.007 302.002c0 8.468 6.865 15.333 15.333 15.333s15.333-6.865 15.333-15.333z" fill="#ffcbbe"/><circle cx="137.34" cy="302.002" fill="#353a3d" r="10.995"/><path d="m139.912 312.693c-.824.202-1.687.306-2.57.306-6.073 0-10.997-4.924-10.997-10.997s4.924-10.997 10.997-10.997c.883 0 1.746.104 2.57.306-4.835 1.154-8.421 5.506-8.421 10.691-.001 5.185 3.586 9.536 8.421 10.691z" fill="#202326"/><path d="m195.585 312.693c-.824.202-1.687.306-2.57.306-6.073 0-10.997-4.924-10.997-10.997s4.924-10.997 10.997-10.997c.883 0 1.746.104 2.57.306-4.835 1.154-8.421 5.506-8.421 10.691s3.586 9.536 8.421 10.691z" fill="#202326"/><circle cx="141.922" cy="300.062" fill="#fff" r="4.712"/></g><g fill="#365e7d"><path d="m124.083 193.518c10.018 0 18.139 8.121 18.139 18.139v14.545c0 11.794-9.561 21.355-21.355 21.355h-32.01v-18.813c0-19.455 15.771-35.226 35.226-35.226z"/><path d="m102.192 312.523h-13.335v-64.966l14.975-7.546 6.234 7.546z"/><path d="m228.162 312.523h13.335v-98.433l-21.725 29.218z"/></g><path d="m260.998 179.081h-94.412c-13.456 0-24.364 10.908-24.364 24.364v23.716c0 11.264 9.132 20.396 20.396 20.396h42.735c30.732 0 55.646-24.913 55.646-55.646v-12.83z" fill="#407093"/><path d="m184.767 247.557h-22.146c-11.268 0-20.4-9.132-20.4-20.395v-23.715c0-13.458 10.908-24.366 24.366-24.366h22.146c-13.453 0-24.361 10.908-24.361 24.366v23.715c0 11.263 9.132 20.395 20.395 20.395z" fill="#365e7d"/></g><g><path d="m355.511 416.304-45.937-5.258-23.47-18.929v-117.782h138.096v104.111l-25.933 32.6" fill="#ffc250"/><g><path d="m420.74 441.45v10.5c-28.807 24.247-63.03 42.254-100.599 51.943-9.968 2.571-20.171-6.041-30.571-4.68v-57.763c0-20.31 16.46-36.78 36.77-36.78h57.62c20.31 0 36.78 16.47 36.78 36.78z" fill="#5e54ac"/><path d="m347.3 404.67c-20.31 0-36.77 16.47-36.77 36.78v58.71c-6.89 1.51-17.196 1.411-20.96 9.65v-68.36c0-20.31 16.46-36.78 36.77-36.78z" fill="#524798"/></g><path d="m377.486 376.808v28.92c0 10.588-6.981 19.537-16.597 22.509-2.201.683-4.547 1.052-6.973 1.052-13.014 0-23.562-10.548-23.562-23.562v-28.92h47.132z" fill="#ffcbbe"/><path d="m377.486 403.896v1.832c0 10.588-6.981 19.537-16.597 22.509-8.676-2.667-15.199-10.21-16.404-19.44 1.574.096 3.157.145 4.748.145 4.458 0 8.829-.353 13.086-1.052 5.246-.845 10.315-2.195 15.167-3.994z" fill="#ffddce"/><path d="m436.688 319.022c0 30.312-16.544 56.76-41.09 70.806-8.312 4.759-17.541 8.096-27.36 9.677-4.148.68-8.396 1.033-12.734 1.054-45.038.185-81.89-37.237-81.89-82.275v-33.516c0-15.332 12.434-27.766 27.766-27.766l57.397-15.891c2.556 0 5.165.242 7.806.712 32.721 5.755 70.105 45.501 70.105 77.199z" fill="#ffddce"/><g fill="#ffcbbe"><path d="m436.688 319.022c0 30.312-16.544 56.76-41.09 70.806 9.034-44.511 1.839-80.283-12.291-89.143-16.993-10.652-29.384-15.543-29.384-47.715l12.66-11.147c32.721 5.755 70.105 45.501 70.105 77.199z"/><path d="m369.422 399.292c-.422.074-.849.148-1.276.216-4.117.673-8.337 1.025-12.642 1.048-45.09.238-81.982-37.179-81.982-82.269v-15.326c0-15.879 12.872-28.751 28.751-28.751v44.811c.001 40.13 28.979 73.477 67.149 80.271z"/><g><circle cx="398.819" cy="338.837" r="10.057"/><circle cx="309.02" cy="338.837" r="10.057"/></g><path d="m363.082 339.589h-18.319c-2.182 0-3.951-1.769-3.951-3.951 0-2.182 1.769-3.951 3.951-3.951h18.319c2.182 0 3.951 1.769 3.951 3.951 0 2.182-1.769 3.951-3.951 3.951z"/></g><path d="m353.923 364.587c-6.761 0-13.522-1.694-19.686-5.082-1.738-.956-2.373-3.14-1.417-4.878.956-1.739 3.14-2.372 4.878-1.417 10.16 5.585 22.29 5.585 32.449 0 1.737-.956 3.922-.321 4.878 1.417s.321 3.922-1.417 4.878c-6.163 3.388-12.924 5.082-19.685 5.082z" fill="#eaac9d"/><g><path d="m400.301 311.341c0-9.385-7.608-16.994-16.994-16.994s-16.994 7.608-16.994 16.994" fill="#ffcbbe"/><circle cx="383.307" cy="318.576" fill="#353a3d" r="11.607"/><circle cx="388.144" cy="316.527" fill="#fff" r="4.974"/><path d="m341.528 311.341c0-9.385-7.608-16.994-16.994-16.994s-16.994 7.608-16.994 16.994" fill="#ffcbbe"/><circle cx="324.534" cy="318.576" fill="#353a3d" r="11.607"/><path d="m327.152 329.884c-.843.2-1.718.3-2.619.3-6.409 0-11.606-5.197-11.606-11.611 0-6.409 5.197-11.606 11.606-11.606.901 0 1.776.105 2.619.3-5.155 1.186-8.992 5.798-8.992 11.306 0 5.514 3.837 10.125 8.992 11.311z" fill="#202326"/><path d="m385.925 329.884c-.843.2-1.718.3-2.62.3-6.409 0-11.606-5.197-11.606-11.611 0-6.409 5.197-11.606 11.606-11.606.901 0 1.776.105 2.62.3-5.155 1.186-8.992 5.798-8.992 11.306 0 5.514 3.837 10.125 8.992 11.311z" fill="#202326"/><circle cx="329.371" cy="316.527" fill="#fff" r="4.974"/></g><path d="m436.39 411.05h-38.12s30.64-96.06-3.35-116.71c-28.45-17.27-38-24.88-40.35-35.04-.46-1.98-.65-4.06-.65-6.33 0 13.89-7 20.73-40.99 41.37-34 20.65-3.35 116.71-3.35 116.71h-38.12s-86.88-212.11 81.9-212.57c.19-.01.38-.01.56-.01 185.87 0 82.47 212.58 82.47 212.58z" fill="#ffd064"/><path d="m287.102 411.047h-15.643s-86.876-212.107 81.906-212.57c-29.642.542-103.584 44.147-66.263 212.57z" fill="#ffc250"/></g><g><g fill="#c47528"><path d="m209.715 438.21c-5.555 0-10.058 5.776-10.058 12.9 0 3.521 1.103 6.71 2.886 9.038-1.783 2.328-2.886 5.516-2.886 9.038 0 3.521 1.103 6.709 2.886 9.037-1.783 2.328-2.886 5.516-2.886 9.037 0 7.125 4.503 12.9 10.058 12.9s10.058-5.776 10.058-12.9c0-3.521-1.103-6.709-2.886-9.037 1.783-2.328 2.886-5.516 2.886-9.037s-1.103-6.71-2.886-9.038c1.783-2.328 2.886-5.516 2.886-9.038-.001-7.124-4.503-12.9-10.058-12.9z"/><path d="m309.446 460.148c1.783-2.328 2.886-5.516 2.886-9.038 0-7.124-4.503-12.9-10.058-12.9s-10.058 5.776-10.058 12.9c0 3.521 1.103 6.71 2.886 9.038-1.783 2.328-2.886 5.516-2.886 9.038 0 3.521 1.103 6.709 2.886 9.037-1.783 2.328-2.886 5.516-2.886 9.037 0 7.125 4.503 12.9 10.058 12.9s10.058-5.776 10.058-12.9c0-3.521-1.103-6.709-2.886-9.037 1.783-2.328 2.886-5.516 2.886-9.037 0-3.522-1.103-6.71-2.886-9.038z"/></g><g><path d="m320.14 503.89c-9.97 2.57-20.17 4.56-30.57 5.92-10.98 1.45-22.19 2.19-33.57 2.19-22.16 0-43.65-2.82-64.16-8.11 4.42-15.35 18.57-26.58 35.35-26.58h57.61c16.78 0 30.93 11.23 35.34 26.58z" fill="#ffd064"/><path d="m248.14 477.31c-18.31 0-33.49 13.38-36.3 30.89-6.76-1.17-13.43-2.61-20-4.31 4.42-15.35 18.57-26.58 35.35-26.58z" fill="#ffc250"/></g><path d="m275.593 457.925v24.051c0 8.805-5.806 16.248-13.803 18.72-1.831.568-3.781.875-5.799.875-10.823 0-19.595-8.772-19.595-19.595v-24.051z" fill="#ffcbbe"/><path d="m275.593 480.453v1.523c0 8.805-5.806 16.248-13.803 18.72-7.215-2.218-12.64-8.491-13.642-16.168 1.309.08 2.626.12 3.948.12 3.708 0 7.342-.294 10.883-.875 4.363-.702 8.579-1.824 12.614-3.32z" fill="#ffddce"/><g><path d="m201.881 418.306c0 8.984-6.563 16.434-15.157 17.817-.939.152-1.905.232-2.891.232-9.97 0-18.048-8.078-18.048-18.048s8.078-18.048 18.048-18.048c.986 0 1.952.079 2.891.232 8.594 1.381 15.157 8.831 15.157 17.815z" fill="#ffddce"/><path d="m201.881 418.306c0 8.984-6.563 16.434-15.157 17.817-1.561-5.676-2.395-11.651-2.395-17.817s.834-12.14 2.395-17.817c8.594 1.383 15.157 8.833 15.157 17.817z" fill="#ffcbbe"/><circle cx="183.832" cy="418.306" fill="#ffcbbe" r="6.451"/><path d="m310.109 418.306c0 8.984 6.563 16.434 15.157 17.817.939.152 1.905.232 2.891.232 9.97 0 18.048-8.078 18.048-18.048s-8.078-18.048-18.048-18.048c-.986 0-1.952.079-2.891.232-8.594 1.381-15.157 8.831-15.157 17.815z" fill="#ffddce"/><g fill="#ffcbbe"><path d="m310.109 418.306c0 8.984 6.563 16.434 15.157 17.817 1.561-5.676 2.395-11.651 2.395-17.817s-.834-12.14-2.395-17.817c-8.594 1.383-15.157 8.833-15.157 17.817z"/><circle cx="328.157" cy="418.306" r="6.451"/></g></g><path d="m323.805 408.82c0 33.745-24.652 61.738-56.928 66.935-3.541.581-7.175.875-10.883.875-37.453 0-67.811-30.358-67.811-67.811v-59.233l68.665-17.783 66.956 17.783v59.234z" fill="#ffddce"/><g fill="#ffcbbe"><path d="m267.939 475.577c-.351.061-.706.123-1.061.18-3.542.579-7.175.872-10.884.872-37.451 0-67.81-30.355-67.81-67.81v-69.037h23.911v69.037c0 33.375 24.1 61.108 55.844 66.758z"/><g><circle cx="293.334" cy="426.347" r="8.364"/><circle cx="218.654" cy="426.347" r="8.364"/></g><path d="m263.614 426.972h-15.235c-1.815 0-3.286-1.471-3.286-3.286 0-1.815 1.471-3.286 3.286-3.286h15.235c1.815 0 3.286 1.471 3.286 3.286 0 1.815-1.471 3.286-3.286 3.286z"/></g><path d="m255.997 447.762c-5.623 0-11.246-1.409-16.371-4.227-1.446-.795-1.974-2.611-1.179-4.057s2.611-1.973 4.057-1.179c8.449 4.645 18.538 4.645 26.986 0 1.445-.795 3.262-.267 4.057 1.179s.267 3.262-1.179 4.057c-5.126 2.818-10.749 4.227-16.371 4.227z" fill="#eaac9d"/><g><path d="m294.567 403.479c0-7.805-6.328-14.133-14.133-14.133s-14.133 6.328-14.133 14.133" fill="#ffcbbe"/><circle cx="280.434" cy="409.496" fill="#353a3d" r="9.653"/><circle cx="284.457" cy="407.793" fill="#fff" r="4.136"/><path d="m245.688 403.479c0-7.805-6.328-14.133-14.133-14.133s-14.133 6.328-14.133 14.133" fill="#ffcbbe"/><circle cx="231.555" cy="409.496" fill="#353a3d" r="9.653"/><path d="m233.733 418.901c-.701.167-1.429.25-2.178.25-5.33 0-9.652-4.322-9.652-9.656 0-5.33 4.322-9.652 9.652-9.652.75 0 1.477.088 2.178.25-4.287.986-7.478 4.822-7.478 9.402 0 4.584 3.191 8.42 7.478 9.406z" fill="#202326"/><path d="m282.611 418.901c-.701.167-1.429.25-2.178.25-5.33 0-9.652-4.322-9.652-9.656 0-5.33 4.322-9.652 9.652-9.652.75 0 1.477.088 2.178.25-4.287.986-7.478 4.822-7.478 9.402 0 4.584 3.191 8.42 7.478 9.406z" fill="#202326"/><circle cx="235.578" cy="407.793" fill="#fff" r="4.136"/></g><g><path d="m266.569 307.558c-3.444-.546-6.979-.826-10.574-.826s-7.13.279-10.574.826c-32.485 5.1-64.401 23.71-64.401 59.442s7.064 40.037 7.064 40.037 55.827-37.335 67.912-62.66c12.085 25.325 67.912 62.66 67.912 62.66s7.064-4.305 7.064-40.037c-.002-35.732-31.918-54.342-64.403-59.442z" fill="#da8f35"/><path d="m255.995 306.732c-1.765 0-3.505.279-5.197.826-15.97 5.1-31.663 23.71-31.663 59.442 0 6.539.115 12.028.308 16.63-16.218 13.279-31.361 23.406-31.361 23.406s-7.064-4.305-7.064-40.037 31.917-54.342 64.401-59.442c3.446-.546 6.98-.825 10.576-.825z" fill="#c47528"/></g></g><path d="m420.74 309.67c8.636 24.089-1.14 77.48-11.51 101.38h-10.96s30.64-96.06-3.35-116.71c-28.45-17.27-38-24.88-40.35-35.04l-.65-6.33c8.65 8.65 51.873 15.006 66.82 56.7z" fill="#ffc250"/></g></svg>